<mxfile host="65bd71144e">
    <diagram id="BzuUc-DxqItfBx5_rMVF" name="array">
        <mxGraphModel dx="837" dy="424" grid="0" gridSize="10" guides="1" tooltips="1" connect="1" arrows="1" fold="1" page="1" pageScale="1" pageWidth="850" pageHeight="1100" math="0" shadow="0">
            <root>
                <mxCell id="0"/>
                <mxCell id="1" parent="0"/>
                <mxCell id="2" value="1" style="rounded=0;whiteSpace=wrap;html=1;" vertex="1" parent="1">
                    <mxGeometry x="320" y="240" width="40" height="40" as="geometry"/>
                </mxCell>
                <mxCell id="3" value="2" style="rounded=0;whiteSpace=wrap;html=1;" vertex="1" parent="1">
                    <mxGeometry x="360" y="240" width="40" height="40" as="geometry"/>
                </mxCell>
                <mxCell id="4" value="3" style="rounded=0;whiteSpace=wrap;html=1;" vertex="1" parent="1">
                    <mxGeometry x="400" y="240" width="40" height="40" as="geometry"/>
                </mxCell>
                <mxCell id="5" value="4" style="rounded=0;whiteSpace=wrap;html=1;" vertex="1" parent="1">
                    <mxGeometry x="440" y="240" width="40" height="40" as="geometry"/>
                </mxCell>
                <mxCell id="6" value="5" style="rounded=0;whiteSpace=wrap;html=1;" vertex="1" parent="1">
                    <mxGeometry x="480" y="240" width="40" height="40" as="geometry"/>
                </mxCell>
            </root>
        </mxGraphModel>
    </diagram>
    <diagram id="LWpDhtM12tTjBGM7vccq" name="bst">
        <mxGraphModel dx="837" dy="424" grid="0" gridSize="10" guides="1" tooltips="1" connect="1" arrows="1" fold="1" page="1" pageScale="1" pageWidth="850" pageHeight="1100" math="0" shadow="0">
            <root>
                <mxCell id="yODWen4zj0zPDsgItIPZ-0"/>
                <mxCell id="yODWen4zj0zPDsgItIPZ-1" parent="yODWen4zj0zPDsgItIPZ-0"/>
                <mxCell id="Q8eElIAyYXVEhB2mMCLC-0" value="" style="group" vertex="1" connectable="0" parent="yODWen4zj0zPDsgItIPZ-1">
                    <mxGeometry x="240" y="200" width="320" height="120" as="geometry"/>
                </mxCell>
                <mxCell id="yODWen4zj0zPDsgItIPZ-4" value="" style="rounded=0;whiteSpace=wrap;html=1;" vertex="1" parent="Q8eElIAyYXVEhB2mMCLC-0">
                    <mxGeometry x="120" width="40" height="40" as="geometry"/>
                </mxCell>
                <mxCell id="yODWen4zj0zPDsgItIPZ-5" value="" style="rounded=0;whiteSpace=wrap;html=1;" vertex="1" parent="Q8eElIAyYXVEhB2mMCLC-0">
                    <mxGeometry x="160" width="40" height="40" as="geometry"/>
                </mxCell>
                <mxCell id="yODWen4zj0zPDsgItIPZ-8" value="" style="group" vertex="1" connectable="0" parent="Q8eElIAyYXVEhB2mMCLC-0">
                    <mxGeometry y="80" width="80" height="40" as="geometry"/>
                </mxCell>
                <mxCell id="yODWen4zj0zPDsgItIPZ-2" value="" style="rounded=0;whiteSpace=wrap;html=1;" vertex="1" parent="yODWen4zj0zPDsgItIPZ-8">
                    <mxGeometry width="40" height="40" as="geometry"/>
                </mxCell>
                <mxCell id="yODWen4zj0zPDsgItIPZ-3" value="" style="rounded=0;whiteSpace=wrap;html=1;" vertex="1" parent="yODWen4zj0zPDsgItIPZ-8">
                    <mxGeometry x="40" width="40" height="40" as="geometry"/>
                </mxCell>
                <mxCell id="yODWen4zj0zPDsgItIPZ-11" style="rounded=0;orthogonalLoop=1;jettySize=auto;html=1;entryX=0;entryY=0;entryDx=0;entryDy=0;" edge="1" parent="Q8eElIAyYXVEhB2mMCLC-0" source="yODWen4zj0zPDsgItIPZ-4" target="yODWen4zj0zPDsgItIPZ-3">
                    <mxGeometry relative="1" as="geometry"/>
                </mxCell>
                <mxCell id="yODWen4zj0zPDsgItIPZ-9" value="" style="group" vertex="1" connectable="0" parent="Q8eElIAyYXVEhB2mMCLC-0">
                    <mxGeometry x="240" y="80" width="80" height="40" as="geometry"/>
                </mxCell>
                <mxCell id="yODWen4zj0zPDsgItIPZ-6" value="" style="rounded=0;whiteSpace=wrap;html=1;" vertex="1" parent="yODWen4zj0zPDsgItIPZ-9">
                    <mxGeometry x="40" width="40" height="40" as="geometry"/>
                </mxCell>
                <mxCell id="yODWen4zj0zPDsgItIPZ-7" value="" style="rounded=0;whiteSpace=wrap;html=1;" vertex="1" parent="yODWen4zj0zPDsgItIPZ-9">
                    <mxGeometry width="40" height="40" as="geometry"/>
                </mxCell>
                <mxCell id="yODWen4zj0zPDsgItIPZ-12" style="rounded=0;orthogonalLoop=1;jettySize=auto;html=1;entryX=0;entryY=0;entryDx=0;entryDy=0;" edge="1" parent="Q8eElIAyYXVEhB2mMCLC-0" source="yODWen4zj0zPDsgItIPZ-5" target="yODWen4zj0zPDsgItIPZ-6">
                    <mxGeometry relative="1" as="geometry"/>
                </mxCell>
                <mxCell id="bimkkR-6liWo1jiyz0II-6" value="3" style="text;html=1;align=center;verticalAlign=middle;resizable=0;points=[];autosize=1;strokeColor=none;" vertex="1" parent="Q8eElIAyYXVEhB2mMCLC-0">
                    <mxGeometry x="32" y="54" width="16" height="17" as="geometry"/>
                </mxCell>
                <mxCell id="bimkkR-6liWo1jiyz0II-9" value="5" style="text;html=1;align=center;verticalAlign=middle;resizable=0;points=[];autosize=1;strokeColor=none;" vertex="1" parent="Q8eElIAyYXVEhB2mMCLC-0">
                    <mxGeometry x="275" y="54" width="16" height="17" as="geometry"/>
                </mxCell>
                <mxCell id="Q8eElIAyYXVEhB2mMCLC-1" value="" style="group;fontStyle=4" vertex="1" connectable="0" parent="yODWen4zj0zPDsgItIPZ-1">
                    <mxGeometry x="40" y="350" width="320" height="120" as="geometry"/>
                </mxCell>
                <mxCell id="Q8eElIAyYXVEhB2mMCLC-14" value="" style="group" vertex="1" connectable="0" parent="Q8eElIAyYXVEhB2mMCLC-1">
                    <mxGeometry x="50" width="180" height="120" as="geometry"/>
                </mxCell>
                <mxCell id="Q8eElIAyYXVEhB2mMCLC-2" value="" style="rounded=0;whiteSpace=wrap;html=1;" vertex="1" parent="Q8eElIAyYXVEhB2mMCLC-14">
                    <mxGeometry x="50" width="40" height="40" as="geometry"/>
                </mxCell>
                <mxCell id="Q8eElIAyYXVEhB2mMCLC-3" value="" style="rounded=0;whiteSpace=wrap;html=1;" vertex="1" parent="Q8eElIAyYXVEhB2mMCLC-14">
                    <mxGeometry x="90" width="40" height="40" as="geometry"/>
                </mxCell>
                <mxCell id="Q8eElIAyYXVEhB2mMCLC-26" value="" style="group" vertex="1" connectable="0" parent="yODWen4zj0zPDsgItIPZ-1">
                    <mxGeometry x="300" y="350" width="180" height="120" as="geometry"/>
                </mxCell>
                <mxCell id="Q8eElIAyYXVEhB2mMCLC-27" value="" style="rounded=0;whiteSpace=wrap;html=1;" vertex="1" parent="Q8eElIAyYXVEhB2mMCLC-26">
                    <mxGeometry x="50" width="40" height="40" as="geometry"/>
                </mxCell>
                <mxCell id="Q8eElIAyYXVEhB2mMCLC-28" value="" style="rounded=0;whiteSpace=wrap;html=1;" vertex="1" parent="Q8eElIAyYXVEhB2mMCLC-26">
                    <mxGeometry x="90" width="40" height="40" as="geometry"/>
                </mxCell>
                <mxCell id="Q8eElIAyYXVEhB2mMCLC-37" style="edgeStyle=none;rounded=0;orthogonalLoop=1;jettySize=auto;html=1;entryX=0;entryY=0;entryDx=0;entryDy=0;" edge="1" parent="yODWen4zj0zPDsgItIPZ-1" source="yODWen4zj0zPDsgItIPZ-2" target="Q8eElIAyYXVEhB2mMCLC-3">
                    <mxGeometry relative="1" as="geometry"/>
                </mxCell>
                <mxCell id="Q8eElIAyYXVEhB2mMCLC-38" style="edgeStyle=none;rounded=0;orthogonalLoop=1;jettySize=auto;html=1;entryX=0;entryY=0;entryDx=0;entryDy=0;" edge="1" parent="yODWen4zj0zPDsgItIPZ-1" source="yODWen4zj0zPDsgItIPZ-3" target="Q8eElIAyYXVEhB2mMCLC-28">
                    <mxGeometry relative="1" as="geometry"/>
                </mxCell>
                <mxCell id="bimkkR-6liWo1jiyz0II-5" value="4" style="text;html=1;align=center;verticalAlign=middle;resizable=0;points=[];autosize=1;strokeColor=none;" vertex="1" parent="yODWen4zj0zPDsgItIPZ-1">
                    <mxGeometry x="393" y="181" width="16" height="17" as="geometry"/>
                </mxCell>
                <mxCell id="bimkkR-6liWo1jiyz0II-7" value="1" style="text;html=1;align=center;verticalAlign=middle;resizable=0;points=[];autosize=1;strokeColor=none;" vertex="1" parent="yODWen4zj0zPDsgItIPZ-1">
                    <mxGeometry x="170" y="325" width="16" height="17" as="geometry"/>
                </mxCell>
                <mxCell id="bimkkR-6liWo1jiyz0II-8" value="2" style="text;html=1;align=center;verticalAlign=middle;resizable=0;points=[];autosize=1;strokeColor=none;" vertex="1" parent="yODWen4zj0zPDsgItIPZ-1">
                    <mxGeometry x="385" y="325" width="16" height="17" as="geometry"/>
                </mxCell>
            </root>
        </mxGraphModel>
    </diagram>
</mxfile>